<svg width="17" height="20" viewBox="0 0 17 20" fill="none" xmlns="http://www.w3.org/2000/svg">
<path d="M12.0778 19.2308C12.0778 19.4348 12.0024 19.6304 11.8682 19.7747C11.734 19.919 11.5519 20 11.3621 20H5.63606C5.44623 20 5.26418 19.919 5.12995 19.7747C4.99572 19.6304 4.92031 19.4348 4.92031 19.2308C4.92031 19.0268 4.99572 18.8311 5.12995 18.6868C5.26418 18.5426 5.44623 18.4615 5.63606 18.4615H11.3621C11.5519 18.4615 11.734 18.5426 11.8682 18.6868C12.0024 18.8311 12.0778 19.0268 12.0778 19.2308ZM16.8066 16.1536C16.6826 16.3885 16.5025 16.5837 16.2849 16.719C16.0673 16.8542 15.82 16.9247 15.5687 16.9231H1.42949C1.17782 16.9227 0.930676 16.851 0.712993 16.7153C0.49531 16.5795 0.314779 16.3845 0.189604 16.1498C0.064428 15.9152 -0.000967515 15.6492 1.08179e-05 15.3787C0.000989151 15.1083 0.0683067 14.8428 0.195176 14.6092C0.726354 13.627 1.35971 11.7631 1.35971 8.46154V7.69231C1.35731 5.65481 2.10812 3.69973 3.44697 2.25715C4.78582 0.814568 6.60304 0.00265047 8.4989 0L8.55347 0.000192385C12.4606 0.0313462 15.6392 3.52096 15.6392 7.77923V8.46154C15.6392 11.7633 16.2722 13.6273 16.8032 14.6096C16.9314 14.8434 16.9994 15.1097 17 15.3811C17.0006 15.6525 16.9339 15.9191 16.8066 16.1536V16.1536ZM15.5687 15.3846C14.946 14.2365 14.2077 12.1058 14.2077 8.46154V7.77923C14.2077 4.36308 11.6664 1.56356 8.54283 1.53865C8.5283 1.53854 8.51378 1.53848 8.49926 1.53846C6.98301 1.54104 5.52981 2.19083 4.45935 3.3449C3.38888 4.49896 2.78884 6.06277 2.79121 7.69231V8.46154C2.79121 12.1058 2.05247 14.2365 1.43271 15.3824L15.5687 15.3846Z" fill="#424242"/>
</svg>
