<svg width="55" height="55" viewBox="0 0 55 55" fill="none" xmlns="http://www.w3.org/2000/svg">
<path d="M27.5 55C42.6878 55 55 42.6878 55 27.5C55 12.3122 42.6878 0 27.5 0C12.3122 0 0 12.3122 0 27.5C0 42.6878 12.3122 55 27.5 55Z" fill="#2D2A3C"/>
<path d="M17.957 38.4121C20.5949 40.7307 23.9885 42.0065 27.5005 42C31.158 42 34.4956 40.6506 37.0484 38.4121C39.3139 36.1039 31.8331 27.8915 27.5005 24.6199C23.1723 27.8906 15.687 36.1039 17.957 38.4121ZM31.4416 21.0103C34.462 24.5882 40.4848 33.4704 38.7856 36.6096C40.8707 34.0337 42.0058 30.8186 42 27.5045C42 23.469 40.3534 19.8159 37.6864 17.1914C37.6864 17.1914 37.6528 17.1624 37.5876 17.1397C37.4781 17.102 37.3626 17.0845 37.2469 17.0881C36.5355 17.0881 34.8499 17.611 31.4425 21.0103H31.4416ZM17.4133 17.1397C17.3481 17.1624 17.3145 17.1914 17.3091 17.1914C15.9415 18.5378 14.8561 20.1433 14.1162 21.9141C13.3764 23.6849 12.9969 25.5854 13 27.5045C13 30.9546 14.2035 34.1174 16.2144 36.6042C14.5252 33.4613 20.538 24.5828 23.5629 21.0094C20.1555 17.6056 18.4654 17.0872 17.7531 17.0872C17.6368 17.0817 17.5206 17.1012 17.4124 17.1443L17.4133 17.1397ZM27.5005 17.2911C27.5005 17.2911 23.9417 15.2094 21.1614 15.1097C20.0713 15.0726 19.4061 15.4641 19.3245 15.5203C21.9163 13.7794 24.6721 13 27.4805 13H27.4995C30.3224 13 33.0637 13.7794 35.6746 15.5203C35.5939 15.4632 34.9324 15.0717 33.8377 15.1097C31.0574 15.2085 27.4986 17.2857 27.4986 17.2857L27.5005 17.2911Z" fill="white"/>
</svg>
