<svg width="55" height="55" viewBox="0 0 55 55" fill="none" xmlns="http://www.w3.org/2000/svg">
<path d="M27.5 55C42.6878 55 55 42.6878 55 27.5C55 12.3122 42.6878 0 27.5 0C12.3122 0 0 12.3122 0 27.5C0 42.6878 12.3122 55 27.5 55Z" fill="#2D2A3C"/>
<path d="M40 19.9793C40 17.8653 38.1347 16 36.0207 16H19.9793C17.8653 16 16 17.8653 16 19.9793V36.0207C16 38.1347 17.8653 40 19.9793 40H28.0622V30.9223H25.0777V26.943H28.0622V25.3264C28.0622 22.5907 30.0518 20.228 32.5389 20.228H35.772V24.2072H32.5389C32.1658 24.2072 31.7927 24.5803 31.7927 25.3264V26.943H35.772V30.9223H31.7927V40H36.0207C38.1347 40 40 38.1347 40 36.0207V19.9793Z" fill="white"/>
</svg>
