<svg width="55" height="55" viewBox="0 0 55 55" fill="none" xmlns="http://www.w3.org/2000/svg">
<path d="M27.5 55C42.6878 55 55 42.6878 55 27.5C55 12.3122 42.6878 0 27.5 0C12.3122 0 0 12.3122 0 27.5C0 42.6878 12.3122 55 27.5 55Z" fill="#2D2A3C"/>
<path d="M18.5456 17L17 20.9484V37.0826H22.5006V38.9629L25.593 40L28.5156 37.0826H32.985L39 31.0745V17H18.5456ZM36.9364 30.0447L33.4994 33.4782H27.9988L25.0774 36.3957V33.4782H20.437V19.0596H36.9364V30.0447ZM33.5006 23.0081V29.0149H31.4382V23.0081H33.5006ZM28 23.0081V29.0149H25.9376V23.0081H28Z" fill="white"/>
</svg>
