<svg width="55" height="55" viewBox="0 0 55 55" fill="none" xmlns="http://www.w3.org/2000/svg">
<path d="M27.5 55C42.6878 55 55 42.6878 55 27.5C55 12.3122 42.6878 0 27.5 0C12.3122 0 0 12.3122 0 27.5C0 42.6878 12.3122 55 27.5 55Z" fill="#2D2A3C"/>
<path d="M41.7399 34.2534C41.7399 34.137 41.6285 34.137 41.6285 34.0205C41.1829 33.089 40.1802 31.9247 38.8434 30.6438C38.1749 30.0617 37.8407 29.5959 37.6179 29.363C37.2837 28.8973 37.2837 28.548 37.3951 28.0822C37.5065 27.7329 37.9521 27.1507 38.732 26.1027C39.1776 25.5205 39.4004 25.1712 39.7346 24.8219C41.4057 22.4932 42.1855 20.9794 41.9627 20.2808L41.8513 20.1644C41.7399 20.0479 41.6285 19.9315 41.4057 19.9315C41.1829 19.8151 40.8487 19.8151 40.5145 19.9315H36.2811C36.1697 19.9315 36.1696 19.9315 35.9468 19.9315C35.8354 19.9315 35.724 19.9315 35.724 19.9315H35.6126H35.5012L35.3898 20.0479C35.2784 20.1644 35.2784 20.1644 35.2784 20.2808C34.8328 21.5616 34.2758 22.6096 33.7187 23.774C33.3845 24.3562 33.0503 24.9384 32.7161 25.4041C32.3819 25.8699 32.159 26.2192 31.9362 26.4521C31.7134 26.6849 31.4906 26.8014 31.3792 27.0342C31.2678 27.1507 31.045 27.2671 31.045 27.1507C30.9336 27.1507 30.8222 27.1507 30.8222 27.0342C30.7108 26.9178 30.5994 26.8014 30.488 26.6849C30.3766 26.5685 30.3766 26.3356 30.2652 26.1027C30.2652 25.8699 30.2652 25.637 30.2652 25.5205C30.2652 25.4041 30.2652 25.0548 30.2652 24.8219C30.2652 24.4726 30.2652 24.2397 30.2652 24.1233C30.2652 23.774 30.2652 23.3082 30.2652 22.8425C30.2652 22.3767 30.2652 22.0274 30.2652 21.7945C30.2652 21.5616 30.2652 21.2123 30.2652 20.9794C30.2652 20.6301 30.2652 20.3973 30.2652 20.2808C30.2652 20.1644 30.1538 19.9315 30.1538 19.8151C30.0424 19.6986 29.9309 19.5822 29.8195 19.4657C29.7081 19.3493 29.4853 19.3493 29.3739 19.2329C28.8169 19.1164 28.1485 19 27.3686 19C25.5862 19 24.3607 19.1164 23.9151 19.3493C23.6923 19.4658 23.4695 19.5822 23.3581 19.8151C23.1352 20.0479 23.1352 20.1644 23.2466 20.1644C23.8037 20.2808 24.2493 20.5137 24.4721 20.863L24.5835 21.0959C24.6949 21.2123 24.6949 21.4452 24.8063 21.7945C24.9177 22.1438 24.9177 22.4931 24.9177 22.9589C24.9177 23.6575 24.9177 24.3562 24.9177 24.8219C24.9177 25.4041 24.8063 25.7534 24.8063 26.1027C24.8063 26.452 24.6949 26.6849 24.5835 26.8014C24.4721 27.0342 24.4721 27.1507 24.3607 27.1507C24.3607 27.1507 24.3607 27.2671 24.2493 27.2671C24.1379 27.2671 24.0265 27.3836 23.8037 27.3836C23.6923 27.3836 23.4695 27.2671 23.3581 27.1507C23.1352 27.0343 22.9124 26.8014 22.801 26.5685C22.5782 26.3356 22.3554 25.9863 22.1326 25.5205C21.9098 25.0548 21.5755 24.589 21.3527 23.8904L21.1299 23.4247C21.0185 23.1918 20.7957 22.726 20.5729 22.1438C20.3501 21.5616 20.1273 21.0959 19.9045 20.5137C19.7931 20.2808 19.6817 20.1644 19.5703 20.0479H19.4589C19.4589 20.0479 19.3474 19.9315 19.236 19.9315C19.1246 19.9315 19.0132 19.8151 18.9018 19.8151H14.8912C14.4456 19.8151 14.2228 19.9315 14.1114 20.0479L14 20.1644C14 20.1644 14 20.2808 14 20.3973C14 20.5137 14 20.6301 14.1114 20.863C14.6684 22.2603 15.3369 23.6575 16.0053 25.0548C16.6737 26.3356 17.3422 27.5 17.7878 28.3151C18.3448 29.1301 18.7904 29.9452 19.3475 30.6438C19.9045 31.3425 20.2387 31.8082 20.3501 32.0411C20.5729 32.274 20.6843 32.3904 20.7957 32.5068L21.1299 32.8562C21.3528 33.089 21.687 33.4384 22.1326 33.7877C22.5782 34.137 23.1352 34.4863 23.6923 34.8356C24.2493 35.1849 24.9177 35.4178 25.5862 35.6507C26.366 35.8836 27.0344 36 27.7029 35.8836H29.3739C29.7081 35.8836 29.931 35.7671 30.1538 35.5343L30.2652 35.4178C30.2652 35.3014 30.3766 35.3014 30.3766 35.1849C30.3766 35.0685 30.3766 34.9521 30.3766 34.7192C30.3766 34.2534 30.3766 33.9041 30.488 33.5548C30.5994 33.2055 30.5994 32.9726 30.7108 32.7397C30.8222 32.5069 30.9336 32.3904 31.045 32.274C31.1564 32.1575 31.2678 32.0411 31.2678 32.0411H31.3792C31.602 31.9247 31.9363 32.0411 32.1591 32.274C32.4933 32.5069 32.8275 32.8562 33.0503 33.2055C33.2731 33.5548 33.6073 33.9041 34.053 34.3699C34.4986 34.8356 34.8328 35.1849 35.0556 35.3014L35.3898 35.5343C35.6126 35.6507 35.8354 35.7671 36.1697 35.8836C36.5039 36 36.7267 36 36.9495 36L40.7373 35.8836C41.0715 35.8836 41.4057 35.7671 41.6285 35.6507C41.8513 35.5343 41.9627 35.4178 41.9627 35.1849C41.9627 35.0685 41.9627 34.8356 41.9627 34.7192C41.7399 34.4863 41.7399 34.3699 41.7399 34.2534Z" fill="white"/>
</svg>
