<svg width="30" height="30" viewBox="0 0 30 30" fill="none" xmlns="http://www.w3.org/2000/svg">
<path d="M28.8461 15C28.8461 7.36531 22.6352 1.15381 15 1.15381C7.36478 1.15381 1.15384 7.36531 1.15384 15C1.15384 18.9041 2.78446 22.4292 5.39266 24.9487C5.45372 25.0282 5.52605 25.0927 5.6107 25.147C8.08135 27.4349 11.3749 28.8461 15 28.8461C18.6251 28.8461 21.9186 27.4349 24.3893 25.147C24.4739 25.0927 24.5463 25.0282 24.6073 24.9487C27.2155 22.4292 28.8461 18.9041 28.8461 15ZM15 2.88458C21.6808 2.88458 27.1154 8.31971 27.1154 15C27.1154 17.8326 26.1308 20.4355 24.4958 22.5009C23.7453 20.0804 21.6024 18.1854 18.6941 17.3135C20.2791 16.1665 21.3157 14.3082 21.3157 12.2083C21.3157 8.73043 18.4829 5.90103 15 5.90103C11.517 5.90103 8.68426 8.73043 8.68426 12.2083C8.68426 14.3082 9.72092 16.1665 11.3058 17.3135C8.39756 18.1854 6.25473 20.0804 5.50414 22.5009C3.86915 20.4355 2.88461 17.8326 2.88461 15C2.88461 8.31971 8.31918 2.88458 15 2.88458ZM10.415 12.2083C10.415 9.68483 12.4714 7.6318 15 7.6318C17.5285 7.6318 19.585 9.68483 19.585 12.2083C19.585 14.7318 17.5285 16.7848 15 16.7848C12.4714 16.7848 10.415 14.7318 10.415 12.2083ZM6.95856 24.0369C7.21871 20.8638 10.5835 18.5156 15 18.5156C19.4165 18.5156 22.7813 20.8638 23.0414 24.0369C20.8997 25.9448 18.0874 27.1153 15 27.1153C11.9126 27.1153 9.10026 25.9448 6.95856 24.0369Z" fill="#424242"/>
</svg>
