<svg width="30" height="30" viewBox="0 0 30 30" fill="none" xmlns="http://www.w3.org/2000/svg">
<path d="M28.8462 15C28.8462 7.36531 22.6352 1.15381 15 1.15381C7.36481 1.15381 1.15387 7.36531 1.15387 15C1.15387 18.9041 2.78449 22.4292 5.39269 24.9487C5.45375 25.0282 5.52608 25.0927 5.61073 25.147C8.08138 27.4349 11.375 28.8461 15 28.8461C18.6251 28.8461 21.9187 27.4349 24.3893 25.147C24.474 25.0927 24.5463 25.0282 24.6074 24.9487C27.2156 22.4292 28.8462 18.9041 28.8462 15ZM15 2.88458C21.6808 2.88458 27.1154 8.31971 27.1154 15C27.1154 17.8326 26.1309 20.4355 24.4959 22.5009C23.7453 20.0804 21.6025 18.1854 18.6942 17.3135C20.2791 16.1665 21.3158 14.3082 21.3158 12.2083C21.3158 8.73043 18.483 5.90103 15 5.90103C11.5171 5.90103 8.68429 8.73043 8.68429 12.2083C8.68429 14.3082 9.72095 16.1665 11.3059 17.3135C8.39759 18.1854 6.25477 20.0804 5.50417 22.5009C3.86918 20.4355 2.88464 17.8326 2.88464 15C2.88464 8.31971 8.31921 2.88458 15 2.88458ZM10.4151 12.2083C10.4151 9.68483 12.4715 7.6318 15 7.6318C17.5286 7.6318 19.585 9.68483 19.585 12.2083C19.585 14.7318 17.5286 16.7848 15 16.7848C12.4715 16.7848 10.4151 14.7318 10.4151 12.2083ZM6.95859 24.0369C7.21875 20.8638 10.5835 18.5156 15 18.5156C19.4165 18.5156 22.7813 20.8638 23.0415 24.0369C20.8998 25.9448 18.0874 27.1153 15 27.1153C11.9127 27.1153 9.10029 25.9448 6.95859 24.0369Z" fill="white"/>
</svg>
