<svg width="17" height="17" viewBox="0 0 17 17" fill="none" xmlns="http://www.w3.org/2000/svg">
<path d="M4.85714 0H12.1429L17 4.85714V12.1429L12.1429 17H4.85714L0 12.1429V4.85714L4.85714 0Z" fill="#424242"/>
<path d="M5.71429 2H11.2857L15 5.71429V11.2857L11.2857 15H5.71429L2 11.2857V5.71429L5.71429 2Z" fill="#FF0F07"/>
<path d="M8.5 5.84961L8.05913 1.44088H8.5H8.94087L8.5 5.84961Z" fill="#424242"/>
<path d="M8.5 11L8.94087 15.4087L8.5 15.4087L8.05913 15.4087L8.5 11Z" fill="#424242"/>
<path d="M5.84961 8.48865L1.44088 8.92952L1.44088 8.48865L1.44088 8.04777L5.84961 8.48865Z" fill="#424242"/>
<path d="M11 8.48865L15.4087 8.04777V8.48865V8.92952L11 8.48865Z" fill="#424242"/>
<path d="M8.50011 9.35857L10.5 10.4997L9.35873 8.49994L10.4996 6.49995L8.50011 7.64131L6.50011 6.49994L7.64148 8.49994L6.5003 10.4999L8.50011 9.35857Z" fill="#424242"/>
</svg>
