<svg width="55" height="55" viewBox="0 0 55 55" fill="none" xmlns="http://www.w3.org/2000/svg">
<path d="M27.5 55C42.6878 55 55 42.6878 55 27.5C55 12.3122 42.6878 0 27.5 0C12.3122 0 0 12.3122 0 27.5C0 42.6878 12.3122 55 27.5 55Z" fill="#2D2A3C"/>
<path d="M38.5346 26.338C40.004 26.3478 40.4798 25.9317 40.663 25.6615C41.345 24.769 40.2769 23.0584 37.7728 21.7607C38.744 19.9243 39.4194 18.2782 39.7601 17.0958C39.945 16.4489 39.8197 16.0568 39.7847 15.9884C39.6907 16.5637 38.9179 18.6386 37.1488 21.4599C35.7816 20.8463 34.0579 20.3607 32.0208 20.1583C31.5319 19.2319 30.1133 16.666 28.7133 15.295C27.7923 14.3899 27.0551 14.0579 26.4798 14.0114H26.4771C25.7208 13.9267 25.2373 14.3314 24.9787 14.613C24.038 15.6264 23.6481 17.2856 23.6115 19.2106C23.2155 18.5352 22.6725 17.8636 22.0529 17.7925H22.043C20.9132 17.6022 19.9436 19.3905 20.0743 22.2381C17.9765 22.3136 16.1915 22.5525 14.9883 22.8522C14.4469 22.9862 14.1013 23.2498 14.0171 23.3838C14.0718 23.363 15.2421 22.8796 20.118 22.8796C20.4035 25.778 21.745 28.4479 21.5399 27.9759C21.0078 28.8181 19.4487 31.3862 18.9526 33.3189C18.6316 34.5701 18.7137 35.3757 18.9608 35.8968C19.2654 36.5941 19.8583 36.8112 20.2296 36.8954C21.5968 37.2077 23.2582 36.6969 24.971 35.7393C24.5592 36.4415 24.2108 37.2985 24.4755 37.8907C24.8753 38.9653 26.9086 38.9112 29.3121 37.3739C30.4157 39.1338 31.5034 40.5425 32.3582 41.4274C32.4985 41.5787 32.6596 41.7092 32.8367 41.8151C33.1178 41.9907 33.3059 41.9994 33.3059 41.9994C32.8553 41.6303 31.4465 39.9213 29.8858 36.9802C31.1009 36.1052 32.3822 34.8545 33.5755 33.192C40.2922 33.4436 41.4117 31.8379 41.6693 31.4617C42.4715 30.3745 41.8569 28.3204 38.5346 26.338ZM34.2772 32.1469C35.5793 30.0846 35.9364 28.4407 35.8877 27.0976C37.4113 28.0585 38.4679 29.1528 38.5707 30.3149C38.633 31.022 38.1277 31.9074 34.2772 32.1469ZM25.8629 35.2012C26.3967 34.8605 26.931 34.4837 27.4598 34.0807C27.8251 34.8096 28.2036 35.508 28.5864 36.1692C26.3661 37.3646 24.8217 36.867 25.8629 35.2012ZM37.6208 25.8305C37.058 25.5385 36.4636 25.265 35.85 25.0075C36.2846 24.3474 36.6993 23.6744 37.0936 22.9895C39.2297 24.3075 39.6037 25.8978 37.6208 25.8305ZM29.2689 35.765C28.9676 35.1443 28.6673 34.4799 28.3665 33.7722C30.7318 33.8417 31.7801 32.7479 31.8272 32.6561C31.8272 32.6599 30.46 33.5114 28.4076 33.326C30.083 31.9265 31.639 30.39 33.0593 28.7322C33.5354 28.174 33.9899 27.6069 34.4226 27.0309C34.403 27.015 34.3384 26.8668 33.5197 26.3746C30.6924 29.6707 27.923 31.734 26.26 32.714C25.134 32.1026 24.0265 30.9761 23.2133 29.3513C22.1196 27.1682 21.5727 24.8456 21.4869 23.0037C22.1595 23.0535 22.8688 23.1224 23.6115 23.2159C22.3925 25.2284 22.8245 26.6612 22.8748 26.7285C22.8748 26.7246 22.8229 25.1332 23.9762 23.4707C24.4677 26.3413 25.2874 29.1458 26.4191 31.8292C26.47 31.8084 26.5197 31.8773 27.4401 31.378C26.0002 27.3054 25.5939 23.8218 25.5808 21.8936C26.6745 21.2143 28.2156 20.8107 30.0449 20.9196C32.4823 21.0656 34.7677 21.7536 36.4062 22.599C36.0164 23.17 35.5911 23.7619 35.1303 24.3747C33.9966 22.3119 32.5458 21.975 32.4583 21.9838C32.4643 21.9838 33.8747 22.7532 34.7289 24.5661C32.6783 23.8136 30.5684 23.2335 28.4212 22.832C27.7068 22.6996 26.9884 22.5893 26.2671 22.5011C26.2633 22.5257 26.1681 22.6023 26.149 23.6129C30.4075 24.4053 33.622 25.7944 35.2944 26.7416C35.3348 28.0295 34.9143 29.564 33.9047 31.0931C32.5594 33.1335 30.8209 34.7697 29.2689 35.765ZM30.7673 20.0697C28.3304 19.9789 26.7434 20.4761 25.589 21.2001C25.6983 18.34 26.7544 17.0231 27.6786 17.0832C28.6028 16.8514 30.6809 19.9357 30.7673 20.0697ZM23.6224 20.2393C23.6487 20.9015 23.7094 21.5857 23.7979 22.278C23.0022 22.2315 22.2262 22.2096 21.4792 22.2091C21.4748 22.3863 21.4726 19.42 22.8283 19.4971H22.8333C23.1483 19.5568 23.4146 19.8734 23.6224 20.2393ZM22.0879 29.0986C23.2232 31.2697 24.4558 32.4111 25.6562 33.0531C23.0974 34.4071 21.4163 34.1468 21.0122 33.2997C21.0012 33.2882 20.4035 32.463 22.0879 29.0992V29.0986Z" fill="white"/>
</svg>
