<svg width="55" height="55" viewBox="0 0 55 55" fill="none" xmlns="http://www.w3.org/2000/svg">
<path d="M27.5 55C42.6878 55 55 42.6878 55 27.5C55 12.3122 42.6878 0 27.5 0C12.3122 0 0 12.3122 0 27.5C0 42.6878 12.3122 55 27.5 55Z" fill="#B6B6B6"/>
<path d="M32.9158 21.4286C32.916 20.6977 33.2034 19.9968 33.7147 19.4802C34.226 18.9635 34.9194 18.6734 35.6422 18.6736C36.3651 18.6739 37.0583 18.9644 37.5692 19.4815C38.0802 19.9985 38.3671 20.6995 38.3669 21.4305C38.3667 22.1614 38.0793 22.8623 37.5679 23.3789C37.0566 23.8956 36.3633 24.1857 35.6404 24.1855C34.9176 24.1852 34.2244 23.8947 33.7134 23.3776C33.2025 22.8606 32.9155 22.1596 32.9158 21.4286ZM40.1361 16.8828C39.3018 16.0392 38.2517 15.447 37.1035 15.1725C35.9553 14.898 34.7541 14.952 33.6345 15.3284C32.5149 15.7049 31.5209 16.389 30.764 17.3042C30.007 18.2193 29.5168 19.3295 29.3483 20.5103L23.5393 29.4127C22.7583 29.4531 21.9845 29.6551 21.2706 30.0151L16.7895 26.474C16.2895 26.1056 15.6675 25.9481 15.0548 26.0347C14.4421 26.1213 13.8867 26.4453 13.5057 26.9382C13.1248 27.4311 12.9482 28.0544 13.0132 28.6764C13.0782 29.2985 13.3797 29.8707 13.8541 30.2723L18.279 33.7711C18.0679 34.6096 18.045 35.4852 18.2121 36.3337C18.3791 37.1822 18.7319 37.9822 19.2444 38.675C19.757 39.3678 20.4164 39.9358 21.1743 40.3374C21.9321 40.739 22.7693 40.9641 23.6244 40.996C24.4794 41.028 25.3307 40.8661 26.1159 40.5221C26.901 40.1782 27.6001 39.6609 28.1618 39.0083C28.7235 38.3557 29.1337 37.5842 29.3623 36.7505C29.5909 35.9167 29.632 35.0418 29.4827 34.1899L36.5505 27.7909C37.7183 27.6205 38.8161 27.1249 39.7212 26.3594C40.6263 25.594 41.3028 24.589 41.6752 23.4569C42.0475 22.3248 42.1009 21.1103 41.8294 19.9492C41.5579 18.7882 40.9722 17.7265 40.1379 16.8828H40.1361ZM23.8336 39.07C22.8195 39.07 21.847 38.6626 21.1299 37.9376C20.4129 37.2125 20.01 36.2291 20.01 35.2037L20.0118 35.1431L21.9118 36.6437C22.1585 36.8386 22.4407 36.9825 22.7423 37.0671C23.0439 37.1517 23.3591 37.1754 23.6698 37.1368C23.9805 37.0983 24.2806 36.9983 24.5531 36.8424C24.8255 36.6866 25.065 36.478 25.2577 36.2286C25.4504 35.9792 25.5927 35.6939 25.6764 35.3889C25.7601 35.0839 25.7835 34.7652 25.7454 34.4511C25.7073 34.1369 25.6083 33.8334 25.4542 33.5579C25.3001 33.2824 25.0938 33.0403 24.8472 32.8454L23.0453 31.4202C23.5692 31.3088 24.1104 31.31 24.6339 31.4236C25.1574 31.5372 25.6514 31.7606 26.084 32.0795C26.5167 32.3984 26.8782 32.8056 27.1454 33.2748C27.4125 33.744 27.5792 34.2646 27.6347 34.8031C27.6901 35.3415 27.6332 35.8857 27.4675 36.4005C27.3017 36.9152 27.031 37.3891 26.6726 37.7913C26.3143 38.1935 25.8765 38.5152 25.3874 38.7355C24.8983 38.9557 24.369 39.0697 23.8336 39.07ZM35.6404 26.0203C34.4361 26.0203 33.281 25.5366 32.4294 24.6755C31.5778 23.8143 31.0993 22.6464 31.0993 21.4286C31.0993 20.2108 31.5778 19.0429 32.4294 18.1818C33.281 17.3207 34.4361 16.8369 35.6404 16.8369C36.8448 16.8369 37.9998 17.3207 38.8515 18.1818C39.7031 19.0429 40.1815 20.2108 40.1815 21.4286C40.1815 22.6464 39.7031 23.8143 38.8515 24.6755C37.9998 25.5366 36.8448 26.0203 35.6404 26.0203Z" fill="white"/>
</svg>
