<svg width="17" height="17" viewBox="0 0 17 17" fill="none" xmlns="http://www.w3.org/2000/svg">
<path d="M4.85714 0H12.1429L17 4.85714V12.1429L12.1429 17H4.85714L0 12.1429V4.85714L4.85714 0Z" fill="white"/>
<path d="M5.71429 2H11.2857L15 5.71429V11.2857L11.2857 15H5.71429L2 11.2857V5.71429L5.71429 2Z" fill="#FF0F07"/>
<path d="M8.5 5.84961L8.05913 1.44088H8.5H8.94087L8.5 5.84961Z" fill="white"/>
<path d="M8.5 11L8.94087 15.4087L8.5 15.4087L8.05913 15.4087L8.5 11Z" fill="white"/>
<path d="M5.84961 8.48877L1.44088 8.92964L1.44088 8.48877L1.44088 8.0479L5.84961 8.48877Z" fill="white"/>
<path d="M11 8.48877L15.4087 8.0479V8.48877V8.92964L11 8.48877Z" fill="white"/>
<path d="M8.50011 9.35845L10.5 10.4996L9.35873 8.49982L10.4996 6.49983L8.50011 7.64119L6.50011 6.49982L7.64148 8.49982L6.5003 10.4998L8.50011 9.35845Z" fill="white"/>
</svg>
