<svg width="20" height="20" viewBox="0 0 20 20" fill="none" xmlns="http://www.w3.org/2000/svg">
<path d="M10.0002 0C8.26325 0.000440087 6.55638 0.453128 5.04756 1.31351C3.53873 2.17389 2.27997 3.4123 1.39516 4.90686C0.510346 6.40142 0.0299865 8.1006 0.001359 9.83717C-0.0272684 11.5737 0.396823 13.2878 1.23189 14.8107L0.409966 17.687C0.334591 17.9508 0.331135 18.2299 0.399956 18.4955C0.468776 18.7611 0.60737 19.0034 0.801375 19.1974C0.99538 19.3914 1.23774 19.53 1.50333 19.5988C1.76892 19.6676 2.04809 19.6641 2.31189 19.5888L5.18844 18.7669C6.52519 19.5004 8.01196 19.9184 9.53508 19.9892C11.0582 20.06 12.5773 19.7816 13.9764 19.1753C15.3754 18.5689 16.6172 17.6508 17.6069 16.4909C18.5966 15.3311 19.308 13.9603 19.6867 12.4835C20.0654 11.0066 20.1013 9.46263 19.7917 7.96973C19.4821 6.47682 18.8353 5.07446 17.9006 3.86987C16.9659 2.66527 15.7681 1.69034 14.3988 1.01962C13.0295 0.348893 11.5249 0.00013226 10.0002 0ZM10.0002 18.4603C8.48058 18.4614 6.98882 18.0526 5.682 17.2772C5.59192 17.2236 5.49183 17.189 5.38789 17.1755C5.28395 17.162 5.17835 17.1699 5.07757 17.1987L1.88939 18.1095L2.80026 14.9217C2.82905 14.8209 2.83693 14.7153 2.82342 14.6113C2.80991 14.5074 2.7753 14.4073 2.7217 14.3172C1.76869 12.7116 1.37349 10.8359 1.59766 8.98234C1.82184 7.12875 2.6528 5.40133 3.9611 4.06919C5.26941 2.73704 6.9816 1.87496 8.83095 1.61724C10.6803 1.35952 12.563 1.72064 14.1857 2.64433C15.8084 3.56801 17.08 5.00242 17.8025 6.72408C18.525 8.44575 18.6577 10.358 18.1801 12.163C17.7024 13.9679 16.6412 15.5643 15.1616 16.7033C13.6821 17.8423 11.8674 18.46 10.0002 18.4603ZM13.8463 8.46097C13.8463 8.66497 13.7653 8.86061 13.621 9.00486C13.4768 9.14911 13.2811 9.23015 13.0771 9.23015H6.92325C6.71923 9.23015 6.52358 9.14911 6.37932 9.00486C6.23506 8.86061 6.15402 8.66497 6.15402 8.46097C6.15402 8.25697 6.23506 8.06133 6.37932 7.91708C6.52358 7.77283 6.71923 7.69179 6.92325 7.69179H13.0771C13.2811 7.69179 13.4768 7.77283 13.621 7.91708C13.7653 8.06133 13.8463 8.25697 13.8463 8.46097ZM13.8463 11.5377C13.8463 11.7417 13.7653 11.9373 13.621 12.0816C13.4768 12.2258 13.2811 12.3069 13.0771 12.3069H6.92325C6.71923 12.3069 6.52358 12.2258 6.37932 12.0816C6.23506 11.9373 6.15402 11.7417 6.15402 11.5377C6.15402 11.3337 6.23506 11.138 6.37932 10.9938C6.52358 10.8495 6.71923 10.7685 6.92325 10.7685H13.0771C13.2811 10.7685 13.4768 10.8495 13.621 10.9938C13.7653 11.138 13.8463 11.3337 13.8463 11.5377Z" fill="#424242"/>
</svg>
