<svg width="55" height="55" viewBox="0 0 55 55" fill="none" xmlns="http://www.w3.org/2000/svg">
<path d="M27.5 55C42.6878 55 55 42.6878 55 27.5C55 12.3122 42.6878 0 27.5 0C12.3122 0 0 12.3122 0 27.5C0 42.6878 12.3122 55 27.5 55Z" fill="#B6B6B6"/>
<path d="M39.4806 26.0055C39.4806 25.4722 39.3917 24.85 39.3917 24.1389C39.3028 23.4278 39.2139 22.7167 39.125 22.0944C38.9472 21.3833 38.6806 20.85 38.1472 20.4056C37.7028 19.9611 37.0806 19.6944 36.4583 19.6056C34.4139 19.3389 31.3917 19.25 27.3028 19.25C23.2139 19.25 20.1028 19.3389 18.1472 19.6056C17.525 19.6944 16.9028 19.9611 16.4583 20.4056C16.0139 20.85 15.6583 21.3833 15.4806 22.0944C15.3028 22.7167 15.2139 23.3389 15.2139 24.1389C15.125 24.85 15.125 25.4722 15.125 26.0055C15.125 26.5389 15.125 27.1611 15.125 28.05C15.125 28.9389 15.125 29.65 15.125 30.0944C15.125 30.6278 15.2139 31.25 15.2139 31.9611C15.3028 32.6722 15.3917 33.3833 15.4806 34.0055C15.6583 34.7167 15.925 35.25 16.4583 35.6944C16.9028 36.1389 17.525 36.4056 18.1472 36.4944C20.1917 36.7611 23.2139 36.85 27.3028 36.85C31.3917 36.85 34.5028 36.7611 36.4583 36.4944C37.0806 36.4056 37.7028 36.1389 38.1472 35.6944C38.5917 35.25 38.9472 34.7167 39.125 34.0055C39.3028 33.3833 39.3917 32.7611 39.3917 31.9611C39.4806 31.25 39.4806 30.6278 39.4806 30.0944C39.4806 29.5611 39.4806 28.9389 39.4806 28.05C39.4806 27.1611 39.4806 26.45 39.4806 26.0055ZM32.0139 28.7611L24.9917 33.1167C24.9028 33.2055 24.725 33.2944 24.5472 33.2944C24.3695 33.2944 24.2806 33.2944 24.1028 33.2056C23.8361 33.0278 23.6583 32.7611 23.6583 32.4056V23.6056C23.6583 23.25 23.8361 22.9833 24.1028 22.8056C24.3695 22.6278 24.725 22.6278 24.9917 22.8056L32.0139 27.1611C32.2806 27.3389 32.4583 27.6056 32.4583 27.8722C32.4583 28.1389 32.2806 28.5833 32.0139 28.7611Z" fill="white"/>
</svg>
