<svg width="55" height="55" viewBox="0 0 55 55" fill="none" xmlns="http://www.w3.org/2000/svg">
<path d="M27.5 55C42.6878 55 55 42.6878 55 27.5C55 12.3122 42.6878 0 27.5 0C12.3122 0 0 12.3122 0 27.5C0 42.6878 12.3122 55 27.5 55Z" fill="#B6B6B6"/>
<path d="M23.8551 15.0009V36.4583L28.5848 38V20.0021C28.5848 19.1556 28.9536 18.5924 29.5481 18.7878C30.3129 19.0125 30.4643 19.7865 30.4643 20.6321V27.8161C33.415 29.2734 35.7358 27.8115 35.7358 23.9614C35.7358 20.0021 34.3765 18.243 30.3746 16.8343C28.7932 16.284 25.8661 15.3815 23.8606 15L23.8551 15.0009ZM29.4819 34.8625L37.0907 32.0771C37.9534 31.7625 38.0866 31.3141 37.3879 31.0793C36.6801 30.8454 35.4096 30.9069 34.536 31.2269L29.4575 33.0612V30.142L29.7447 30.042C29.7447 30.042 31.1983 29.5275 33.2655 29.2872C35.3144 29.068 37.8401 29.3248 39.8366 30.0943C42.0695 30.8307 42.3051 31.8955 41.7387 32.632C41.1769 33.362 39.7804 33.8976 39.7804 33.8976L29.4575 37.6946V34.8854L29.4819 34.8625ZM15.1852 34.5717C12.8861 33.9031 12.5091 32.532 13.5512 31.7286C14.5191 31.0169 16.1567 30.4446 16.1567 30.4446L22.9435 27.9839V30.8115L18.0824 32.6127C17.2278 32.9429 17.0865 33.3868 17.7951 33.6207C18.5029 33.86 19.7716 33.8078 20.6226 33.4776L22.9634 32.6127V35.1486C22.822 35.1826 22.6562 35.2009 22.4912 35.2394C20.1504 35.642 17.6674 35.4788 15.1988 34.6524L15.1852 34.5717Z" fill="white"/>
</svg>
