<svg width="21" height="20" viewBox="0 0 21 20" fill="none" xmlns="http://www.w3.org/2000/svg">
<g clip-path="url(#clip0_136_2)">
<path d="M19.8515 8.32992C19.8323 8.22252 19.7895 8.12074 19.7263 8.03197C19.663 7.9432 19.5808 7.86966 19.4857 7.81669L17.4131 6.66332C17.2469 6.31638 17.0549 5.98244 16.8388 5.66434L16.8787 3.28654C16.8807 3.17778 16.8584 3.06996 16.8136 2.97089C16.7688 2.87182 16.7026 2.784 16.6197 2.7138C15.7632 1.9914 14.7859 1.42665 13.7331 1.04564C13.6308 1.00856 13.5215 0.994781 13.4132 1.00532C13.3049 1.01585 13.2003 1.05042 13.107 1.10653L11.0742 2.3294C10.6914 2.30021 10.307 2.2999 9.92416 2.32848L9.92626 2.32967L7.89022 1.10479C7.79724 1.04873 7.69298 1.01413 7.585 1.00351C7.47703 0.992876 7.36804 1.00649 7.26597 1.04335C6.21371 1.42584 5.23725 1.99196 4.38174 2.71554C4.29854 2.78585 4.232 2.87386 4.18695 2.97316C4.1419 3.07246 4.11946 3.18058 4.12126 3.28966L4.16117 5.66617C3.94456 5.98393 3.75207 6.31756 3.58533 6.66424L1.51166 7.81825C1.41635 7.87137 1.33404 7.94512 1.27074 8.03414C1.20743 8.12315 1.16472 8.2252 1.1457 8.33285C0.950487 9.43674 0.951446 10.5665 1.14853 11.6701C1.16769 11.7775 1.21045 11.8793 1.27372 11.968C1.33699 12.0568 1.41917 12.1303 1.51431 12.1833L3.58697 13.3368H3.58688C3.75309 13.6837 3.94506 14.0176 4.16117 14.3358V14.3334L4.12126 16.7135C4.11932 16.8223 4.14155 16.9301 4.18635 17.0292C4.23116 17.1283 4.2974 17.2161 4.38027 17.2863C5.23681 18.0087 6.21408 18.5734 7.26688 18.9545C7.36922 18.9915 7.47851 19.0053 7.58681 18.9948C7.69512 18.9842 7.79973 18.9497 7.89305 18.8936L9.9258 17.6707C10.3086 17.6999 10.693 17.7002 11.0758 17.6716L11.0737 17.6704L13.1098 18.8952C13.2028 18.9513 13.307 18.9859 13.415 18.9965C13.523 19.0071 13.632 18.9935 13.734 18.9566C14.7863 18.5742 15.7627 18.008 16.6183 17.2845C16.7015 17.2141 16.768 17.1261 16.813 17.0268C16.8581 16.9275 16.8805 16.8194 16.8787 16.7103L16.8388 14.3339C17.0555 14.0162 17.2479 13.6825 17.4147 13.3359L19.4883 12.1817C19.5837 12.1286 19.666 12.0549 19.7293 11.9659C19.7926 11.8768 19.8353 11.7748 19.8543 11.6671C20.0495 10.5633 20.0486 9.43347 19.8515 8.32992ZM10.5 14.3952C9.63295 14.3952 8.78537 14.1374 8.06444 13.6545C7.34352 13.1715 6.78162 12.4851 6.44982 11.682C6.11801 10.8788 6.03119 9.99512 6.20035 9.14254C6.3695 8.28996 6.78702 7.50681 7.40012 6.89214C8.01322 6.27746 8.79435 5.85886 9.64475 5.68927C10.4951 5.51968 11.3766 5.60672 12.1776 5.93938C12.9787 6.27204 13.6634 6.83538 14.1451 7.55817C14.6268 8.28095 14.8839 9.13072 14.8839 10C14.8839 11.1657 14.422 12.2836 13.5999 13.1079C12.7777 13.9321 11.6627 14.3952 10.5 14.3952Z" fill="url(#paint0_linear_136_2)"/>
<path d="M20.8352 8.15175C20.7964 7.93128 20.709 7.7223 20.5793 7.54012C20.4496 7.35795 20.281 7.20718 20.0858 7.09886L18.162 6.02705C18.0386 5.78692 17.9042 5.5527 17.759 5.32515L17.7961 3.11513C17.8005 2.8915 17.7549 2.66973 17.6627 2.46609C17.5706 2.26244 17.4342 2.08208 17.2635 1.93824C16.3172 1.13831 15.237 0.513324 14.073 0.0923771C13.8634 0.0158468 13.6393 -0.0126534 13.4172 0.0089632C13.1952 0.0305798 12.9808 0.101766 12.7897 0.21731L10.903 1.35356C10.6341 1.3407 10.3648 1.34048 10.0958 1.3529L8.20753 0.215711C8.01675 0.100082 7.80259 0.028794 7.58078 0.00707788C7.35896 -0.0146383 7.13512 0.0137684 6.92567 0.0902135C5.76232 0.51278 4.68295 1.13926 3.73778 1.9405C3.56692 2.08448 3.4303 2.26499 3.33794 2.46882C3.24558 2.67265 3.19981 2.89463 3.20399 3.11851L3.24101 5.32647C3.09551 5.55379 2.96064 5.78779 2.83684 6.02771L0.911516 7.10055C0.715988 7.20907 0.547146 7.36015 0.417376 7.5427C0.287607 7.72525 0.200202 7.93464 0.161575 8.15552C-0.0548926 9.37694 -0.0538452 10.6272 0.164668 11.8483C0.203496 12.0688 0.290958 12.2777 0.420652 12.4599C0.550345 12.6421 0.718988 12.7929 0.914234 12.9012L2.83787 13.9731C2.96127 14.2132 3.09576 14.4474 3.24092 14.6749L3.20389 16.8849C3.19954 17.1085 3.24511 17.3303 3.33726 17.5339C3.42942 17.7376 3.56582 17.9179 3.73647 18.0618C4.68274 18.8617 5.76297 19.4867 6.92688 19.9077C7.13656 19.9842 7.36064 20.0127 7.58271 19.9911C7.80479 19.9695 8.01923 19.8983 8.21034 19.7827L10.097 18.6465C10.3658 18.6594 10.6359 18.6596 10.9041 18.6471L12.7925 19.7843C12.9833 19.8999 13.1974 19.9712 13.4192 19.9929C13.641 20.0146 13.8649 19.9862 14.0743 19.9098C15.2377 19.4873 16.3171 18.8608 17.2623 18.0595C17.4332 17.9156 17.5698 17.735 17.6622 17.5312C17.7545 17.3274 17.8003 17.1054 17.7961 16.8815L17.7591 14.6736C17.9046 14.4462 18.0395 14.2122 18.1633 13.9723L20.0885 12.8996C20.284 12.791 20.4528 12.64 20.5826 12.4574C20.7124 12.2749 20.7998 12.0655 20.8384 11.8446C21.0549 10.6232 21.0538 9.37291 20.8353 8.15185L20.8352 8.15175ZM19.3606 11.5835L17.2303 12.7705C17.0828 12.8524 16.9673 12.982 16.9027 13.1383C16.7521 13.447 16.5795 13.7444 16.3864 14.0282C16.2988 14.1569 16.2532 14.3097 16.2558 14.4655L16.2959 16.9087C15.4861 17.5954 14.5611 18.1321 13.5642 18.4937L11.4746 17.2353C11.473 17.2343 11.4713 17.2333 11.4696 17.2323C11.3249 17.1463 11.1555 17.112 10.9888 17.1348C10.6487 17.1578 10.3074 17.1564 9.96751 17.1305C9.81274 17.119 9.65818 17.1557 9.52501 17.2357L7.43678 18.4921C6.43944 18.1316 5.51391 17.596 4.7034 16.9103L4.74445 14.4658V14.4649C4.74762 14.2957 4.69349 14.1305 4.59092 13.9962C4.39993 13.7109 4.22958 13.4123 4.08121 13.1025C4.01401 12.962 3.90501 12.846 3.76928 12.7703L1.64102 11.5835C1.45351 10.5362 1.45301 9.46382 1.63952 8.41639L3.76965 7.22953C3.91861 7.14681 4.03495 7.01551 4.0994 6.85737C4.24953 6.55025 4.42137 6.25432 4.61361 5.97183C4.70118 5.84316 4.7468 5.69037 4.74417 5.53457L4.70415 3.09132C5.51389 2.40467 6.43881 1.86799 7.43575 1.50634L9.52529 2.76469L9.53035 2.7677C9.67507 2.85376 9.84454 2.88814 10.0112 2.86526C10.3513 2.84219 10.6926 2.84361 11.0325 2.86949C11.1873 2.88118 11.3419 2.84443 11.475 2.76432L13.5632 1.50794C14.5606 1.86842 15.4861 2.40402 16.2966 3.08973L16.2555 5.53419V5.53513C16.2524 5.7043 16.3065 5.86954 16.4091 6.00382C16.6 6.2891 16.7704 6.58777 16.9187 6.89754C16.9859 7.03801 17.0949 7.15407 17.2306 7.22972L19.359 8.41648C19.5465 9.46374 19.547 10.5361 19.3605 11.5835H19.3606ZM10.5 4.73172C9.46186 4.73172 8.44703 5.0407 7.58385 5.61958C6.72067 6.19846 6.0479 7.02125 5.65062 7.9839C5.25334 8.94654 5.1494 10.0058 5.35193 11.0278C5.55446 12.0497 6.05437 12.9884 6.78845 13.7252C7.52252 14.462 8.45779 14.9637 9.47598 15.167C10.4942 15.3703 11.5496 15.2659 12.5087 14.8672C13.4678 14.4685 14.2876 13.7932 14.8643 12.9268C15.4411 12.0605 15.7489 11.0419 15.7489 9.99997C15.7473 8.60323 15.1938 7.26416 14.2098 6.27652C13.2258 5.28887 11.8916 4.73332 10.5 4.73172ZM10.5 13.763C9.75847 13.763 9.0336 13.5423 8.41704 13.1288C7.80048 12.7153 7.31993 12.1276 7.03616 11.44C6.75239 10.7524 6.67814 9.99579 6.8228 9.26584C6.96747 8.53588 7.32455 7.86537 7.84889 7.3391C8.37323 6.81283 9.04128 6.45444 9.76856 6.30924C10.4958 6.16404 11.2497 6.23856 11.9348 6.52338C12.6199 6.80819 13.2054 7.29051 13.6174 7.90934C14.0293 8.52817 14.2492 9.25571 14.2492 9.99997C14.2481 10.9976 13.8528 11.9541 13.1499 12.6596C12.447 13.3651 11.494 13.7619 10.5 13.763Z" fill="white"/>
</g>
<defs>
<linearGradient id="paint0_linear_136_2" x1="3.375" y1="16.25" x2="18.6352" y2="4.97438" gradientUnits="userSpaceOnUse">
<stop stop-color="#2A0463"/>
<stop offset="1" stop-color="#5600FF"/>
</linearGradient>
<clipPath id="clip0_136_2">
<rect width="21" height="20" fill="white"/>
</clipPath>
</defs>
</svg>
